PathFileType	4	(X/Y/Z)	D:/Ayumi_testdata/Ayumi_25_09_2024/motion/sumo_dl_80kg00/markers_experimental.trc	
DataRate	CameraRate	NumFrames	NumMarkers	Units	OrigDataRate	OrigDataStartFrame	OrigNumFrames	
200.00	200.00	6	52	mm	200.00	1269	2164	
Frame#	Time	RSACR			LSACR			USACR			LBAR			RBAR			RHEE			RMT1			RMT5			RMT2			LHEE			LMT1			LMT5			LMT2			LMMAL			LLMAL			LTIB4			LTIB2			LTIB3			LTIB1			RMMAL			RLMAL			RTIB1			RTIB2			RTIB3			RTHI1			RTHI4			RTHI3			RTHI2			LTHI1			LTHI4			LTHI3			LTHI2			FHD			LBHD			RBHD			C7			T10			CLAV			LSHO			RSHO			LRAD			LUL			LRFIN			RRAD			RUL			RUFIN			LDUPA			LMUPA			LUUPA			RDUPA			RUUPA			RMUPA			
		X1	Y1	Z1	X2	Y2	Z2	X3	Y3	Z3	X4	Y4	Z4	X5	Y5	Z5	X6	Y6	Z6	X7	Y7	Z7	X8	Y8	Z8	X9	Y9	Z9	X10	Y10	Z10	X11	Y11	Z11	X12	Y12	Z12	X13	Y13	Z13	X14	Y14	Z14	X15	Y15	Z15	X16	Y16	Z16	X17	Y17	Z17	X18	Y18	Z18	X19	Y19	Z19	X20	Y20	Z20	X21	Y21	Z21	X22	Y22	Z22	X23	Y23	Z23	X24	Y24	Z24	X25	Y25	Z25	X26	Y26	Z26	X27	Y27	Z27	X28	Y28	Z28	X29	Y29	Z29	X30	Y30	Z30	X31	Y31	Z31	X32	Y32	Z32	X33	Y33	Z33	X34	Y34	Z34	X35	Y35	Z35	X36	Y36	Z36	X37	Y37	Z37	X38	Y38	Z38	X39	Y39	Z39	X40	Y40	Z40	X41	Y41	Z41	X42	Y42	Z42	X43	Y43	Z43	X44	Y44	Z44	X45	Y45	Z45	X46	Y46	Z46	X47	Y47	Z47	X48	Y48	Z48	X49	Y49	Z49	X50	Y50	Z50	X51	Y51	Z51	X52	Y52	Z52	

812	4.055	462.23355	960.27124	635.14801	465.53409	903.13940	640.05676	447.31470	931.92236	644.30328	212.29349	-196.11461	251.21268	152.91080	2023.89722	244.08315	292.59918	1363.68030	35.03637	125.84959	1464.19983	42.92447	190.30971	1515.35730	29.43602	153.35692	1494.73804	42.10384	332.97821	484.65817	45.51346	163.53529	396.88687	48.42270	224.42017	344.61694	29.63482	186.11368	365.94626	45.79562	271.26926	497.57153	73.40897	309.01172	425.13901	70.55302	303.70490	453.47858	211.75761	278.59601	442.75967	271.29507	315.15271	478.11624	271.98917	301.67810	476.52798	310.42648	239.63222	1359.07751	66.01356	279.37677	1424.30969	73.17180	231.64365	1399.09216	316.30048	275.79364	1376.25720	308.31421	249.93831	1402.15674	253.87132	445.78268	1127.19739	538.36035	342.14951	1220.39526	514.98389	362.83301	1228.39246	468.75580	395.44684	1183.34924	504.02640	466.59525	724.19537	542.84821	359.83563	621.30817	522.07605	386.91766	622.06952	477.80566	407.44870	665.78296	522.88702	-38.04583	837.89374	1089.14075	73.98691	845.95941	1103.67993	90.66385	969.33691	1091.07251	140.19911	911.94617	937.77759	406.24286	928.90393	681.22632	70.88767	915.74396	816.22424	126.96484	739.07343	854.11682	86.86388	1069.39514	847.06769	145.03430	687.94336	316.02167	140.40279	647.46753	314.94833	157.96606	707.66309	228.07381	130.73291	1138.08411	312.44553	122.86607	1185.33301	310.28104	145.34306	1124.06445	222.02104	115.32819	713.95593	625.49396	142.19022	678.05896	604.24988	130.74800	693.37994	681.00635	95.79922	1091.13550	589.14935	101.02819	1120.42932	662.97406	110.81937	1136.57019	603.37451 
813	4.060	462.35092	960.43048	635.19269	465.67700	903.29657	640.13031	447.60086	932.25519	644.47778	212.34044	-196.10776	251.26994	152.56422	2023.89844	244.11871	292.56100	1363.63965	35.03087	125.84054	1464.18689	42.91783	189.73016	1515.55969	29.74633	153.33946	1494.73975	42.10514	332.97961	484.66000	45.50829	163.52458	396.88181	48.41349	224.40945	344.61826	29.63696	186.11896	365.95233	45.80048	271.26938	497.60071	73.39743	309.01413	425.16254	70.52935	303.77240	453.55618	211.79518	278.65958	442.84241	271.32727	315.24979	478.24753	271.98163	301.71268	476.72693	310.39722	239.59842	1359.04590	66.00782	279.29913	1424.28333	73.17979	230.98376	1398.84290	316.67581	275.58826	1376.22559	308.33627	249.80777	1402.17249	253.88756	445.72885	1127.37573	538.33252	341.96964	1220.50061	514.95868	362.59543	1228.52490	468.70944	395.28360	1183.53418	504.04977	466.69543	724.40845	542.86914	359.86768	621.54016	522.09436	386.99677	622.28174	477.84109	407.48538	666.01685	522.90454	-37.27645	837.87769	1089.46814	74.79214	845.93787	1103.71521	91.43179	969.35327	1091.13342	140.40170	912.05157	937.83221	406.45700	929.08710	681.28802	71.05756	915.84644	816.28668	127.14566	739.16443	854.13251	86.96109	1069.48486	847.14673	144.90164	687.97650	316.03622	140.26683	647.51355	314.98849	157.84196	707.68842	228.12016	130.57251	1138.03894	312.46198	122.63998	1185.29797	310.28214	145.14993	1124.04858	222.04175	115.36745	714.07703	625.53424	142.19824	678.16302	604.27423	130.79927	693.48492	681.03198	95.81132	1091.06067	589.23907	101.03363	1120.40454	663.04254	110.76068	1136.53467	603.44080 
814	4.065	462.47812	960.59619	635.23810	465.79108	903.43079	640.08234	447.58810	932.24359	644.43762	212.39525	-196.08264	251.32932	152.21542	2023.88440	244.12305	292.51041	1363.55994	35.00910	125.83344	1464.17175	42.89426	190.29778	1515.35583	29.44961	153.32568	1494.73364	42.11349	332.98364	484.68997	45.50489	163.54330	396.88998	48.39913	224.41025	344.61783	29.62680	186.11464	365.95804	45.79363	271.27789	497.63153	73.36155	309.03922	425.19397	70.54655	303.82928	453.66812	211.78484	278.71457	442.98712	271.34369	315.57895	478.38342	271.99399	301.80344	476.86472	310.38428	239.55197	1359.02515	65.99759	279.24646	1424.25891	73.20861	230.78584	1398.82263	316.68112	275.39029	1376.20032	308.37912	249.61536	1402.17383	253.91925	445.67896	1127.57043	538.29681	341.78479	1220.63513	514.93640	362.38824	1228.65967	468.68262	395.30914	1183.89709	504.20981	466.81052	724.62122	542.90356	359.95480	621.77130	522.10797	387.07019	622.53497	477.89035	407.60257	666.18066	522.99860	-36.56922	837.87323	1089.78284	75.55042	845.96198	1103.72852	92.14465	969.34521	1091.13147	140.57460	912.11993	937.88147	406.65021	929.27887	681.35730	71.24162	915.95282	816.33942	127.30607	739.26831	854.13251	87.04086	1069.56116	847.21289	144.34433	688.03943	316.18558	140.14241	647.53113	315.01657	157.72530	707.70673	228.12624	130.38301	1138.02258	312.46695	122.44839	1185.29431	310.28989	144.93735	1124.06311	222.04741	115.40046	714.18652	625.57428	142.18010	678.25903	604.29059	130.83011	693.59491	681.05524	95.78371	1091.01501	589.31805	101.04141	1120.28625	663.20178	110.67886	1136.51819	603.48004 
815	4.070	462.58463	960.76587	635.28503	465.90729	903.58105	640.15479	447.86594	932.59796	644.60120	212.44524	-196.08553	251.40465	151.87717	2023.87878	244.07141	292.55896	1363.74792	35.08106	125.82473	1464.16345	42.87889	189.72633	1515.53198	29.77916	153.30905	1494.72302	42.10225	332.97702	484.69989	45.50271	163.51926	396.88602	48.39032	224.40703	344.60730	29.61999	186.11847	365.97168	45.78854	271.29062	497.66699	73.32509	309.02567	425.23535	70.52606	303.87451	453.72101	211.81184	278.76654	443.10580	271.36456	315.59512	478.51929	271.96524	301.89114	477.00897	310.37622	239.51799	1359.00708	65.97731	279.18939	1424.22388	73.23580	230.63618	1398.80615	316.66425	275.23758	1376.13611	308.45401	249.54803	1402.13513	253.92677	445.61877	1127.81311	538.27734	341.60379	1220.75610	514.89520	362.16611	1228.82104	468.66083	395.12469	1184.05798	504.19504	466.94046	724.86035	542.93616	360.03162	622.01324	522.14142	387.16666	622.74829	477.94897	407.68994	666.40442	523.05426	-35.90067	837.86322	1090.05505	76.25735	845.95837	1103.68542	92.83277	969.35095	1091.10547	140.74947	912.21606	937.92371	406.81674	929.46472	681.40930	71.39991	916.04102	816.38031	127.40852	739.35693	854.13245	87.12706	1069.64441	847.26660	144.22672	688.08777	316.19366	140.02327	647.56512	315.01389	157.62474	707.70770	228.12030	130.19746	1137.99097	312.45764	122.24020	1185.27344	310.26553	144.74590	1124.04272	222.03665	115.37749	714.27777	625.60266	142.13133	678.33966	604.32098	130.84273	693.69342	681.08301	95.75210	1091.03357	589.37402	101.00867	1120.30652	663.24133	110.57951	1136.54761	603.52429 
816	4.075	462.69803	960.95972	635.33118	466.02945	903.77020	640.20258	447.98883	932.77161	644.66870	212.47127	-196.06621	251.43935	151.51440	2023.86426	243.99242	292.55228	1363.75244	35.09505	125.79287	1464.13684	42.87463	190.25931	1515.33789	29.49312	153.30054	1494.71338	42.10463	332.97266	484.71729	45.49913	163.52980	396.89844	48.37719	224.39288	344.60339	29.62943	186.10649	365.97885	45.78367	271.29193	497.71109	73.30573	309.04205	425.24826	70.51250	303.88354	453.79764	211.78963	278.81427	443.20605	271.39206	315.68747	478.56992	271.96091	301.99225	477.11417	310.36252	239.46848	1358.97119	65.95458	279.14975	1424.20056	73.22242	230.58757	1398.80469	316.60687	275.12296	1376.00256	308.47577	249.61824	1402.09473	253.90656	445.58542	1128.02344	538.24237	341.41470	1220.87817	514.86298	362.01810	1228.97668	468.62802	394.80374	1184.01782	503.83505	467.06989	725.09521	542.96753	360.07867	622.29633	522.19818	387.28458	622.97284	478.01834	407.74802	666.70599	523.04712	-35.26057	837.84717	1090.34143	76.95033	845.92578	1103.62585	93.44064	969.28827	1091.03149	140.88513	912.31305	937.93628	406.97595	929.65088	681.45239	71.54273	916.12714	816.39563	127.47005	739.46857	854.10797	87.17358	1069.71497	847.28375	144.10059	688.10199	316.17722	139.90128	647.57947	315.00446	157.50529	707.70892	228.10858	130.01831	1137.96973	312.42883	122.01775	1185.23181	310.24850	144.77812	1124.07031	222.08655	115.33677	714.36481	625.62091	142.06888	678.42358	604.33929	130.80038	693.79370	681.09766	95.69151	1091.03174	589.40564	100.93148	1120.32776	663.26294	110.48803	1136.56067	603.55066 
817	4.080	462.80499	961.15552	635.35486	466.17249	903.99213	640.29175	448.09448	932.94800	644.69580	212.49232	-196.04335	251.40195	151.16357	2023.89868	243.93193	292.48935	1363.61780	35.04395	125.78315	1464.12659	42.86301	190.22545	1515.32434	29.50718	153.28267	1494.69983	42.09971	332.97406	484.74612	45.48760	163.52272	396.88647	48.36419	224.38597	344.60272	29.62431	186.12665	365.97290	45.77452	271.31641	497.72278	73.27590	309.05487	425.27521	70.52863	303.91699	453.85846	211.80272	278.85880	443.30679	271.39960	315.71838	478.66446	271.97470	302.07242	477.17188	310.37051	239.43741	1358.93103	65.91743	279.12332	1424.17419	73.22179	230.59586	1398.77698	316.53525	275.04355	1375.81104	308.43097	250.04462	1401.92419	253.91774	445.52911	1128.27161	538.18463	341.24313	1221.02637	514.82086	361.83676	1229.15076	468.60718	394.89069	1184.43237	504.09601	467.20480	725.31445	543.00134	360.15842	622.53217	522.24609	387.38370	623.17358	478.07095	407.84442	666.94684	523.09552	-34.67251	837.84778	1090.61499	77.58999	845.95233	1103.57654	94.03304	969.32214	1090.97388	141.01483	912.39978	937.94678	407.13101	929.84613	681.48267	71.64479	916.22632	816.39331	127.50972	739.58179	854.06824	87.23725	1069.59656	847.13232	143.98999	688.13037	316.15683	139.78532	647.60583	314.97491	157.42476	707.70746	228.07559	129.82645	1137.92627	312.39233	121.83534	1185.19861	310.19247	144.63176	1124.05676	222.05621	115.29800	714.45679	625.62628	142.02129	678.47577	604.33221	130.77400	693.88397	681.10785	95.62089	1091.07556	589.40753	100.85979	1120.39136	663.25482	110.41492	1136.58447	603.51526 
